<svg width="111" height="99" viewBox="0 0 111 99" fill="none" xmlns="http://www.w3.org/2000/svg">
<g clip-path="url(#clip0_76_27)">
<path d="M40.0833 0C34.3214 0 29.5422 3.96387 28.174 9.31992C28.0198 9.31992 27.9042 9.28125 27.75 9.28125C20.9474 9.28125 15.4167 14.8307 15.4167 21.6562C15.4167 22.5844 15.5323 23.4932 15.7443 24.3633C10.1172 26.6836 6.16667 32.2137 6.16667 38.6719C6.16667 41.1082 6.78333 43.3705 7.76615 45.4201C3.14115 48.0885 0 53.0385 0 58.7812C0 65.2201 3.93125 70.7502 9.51979 73.0705C9.34635 73.96 9.25 74.8688 9.25 75.7969C9.25 83.4926 15.4552 89.7188 23.125 89.7188C23.9151 89.7188 24.6859 89.6221 25.4375 89.4867C27.2875 94.9975 32.4135 99 38.5417 99C46.2115 99 52.4167 92.7738 52.4167 85.0781V12.375C52.4167 5.54941 46.8859 0 40.0833 0ZM111 58.7812C111 53.0385 107.859 48.0885 103.234 45.4201C104.236 43.3705 104.833 41.1082 104.833 38.6719C104.833 32.2137 100.883 26.6836 95.2557 24.3633C95.4484 23.4932 95.5833 22.5844 95.5833 21.6562C95.5833 14.8307 90.0526 9.28125 83.25 9.28125C83.0958 9.28125 82.9609 9.31992 82.826 9.31992C81.4578 3.96387 76.6786 0 70.9167 0C64.1141 0 58.5833 5.53008 58.5833 12.375V85.0781C58.5833 92.7738 64.7885 99 72.4583 99C78.5865 99 83.7125 94.9975 85.5625 89.4867C86.3141 89.6221 87.0849 89.7188 87.875 89.7188C95.5448 89.7188 101.75 83.4926 101.75 75.7969C101.75 74.8688 101.654 73.96 101.48 73.0705C107.069 70.7502 111 65.2201 111 58.7812Z" fill="#1EA4D9"/>
</g>
<defs>
<clipPath id="clip0_76_27">
<rect width="111" height="99" fill="white"/>
</clipPath>
</defs>
</svg>
