<svg width="92" height="98" viewBox="0 0 92 98" fill="none" xmlns="http://www.w3.org/2000/svg">
<path d="M83.6923 7.53846H72.3846V3.76923C72.3846 2.76957 71.9875 1.81085 71.2806 1.10398C70.5738 0.397114 69.615 0 68.6154 0C67.6157 0 66.657 0.397114 65.9501 1.10398C65.2433 1.81085 64.8462 2.76957 64.8462 3.76923V7.53846H27.1538V3.76923C27.1538 2.76957 26.7567 1.81085 26.0499 1.10398C25.343 0.397114 24.3843 0 23.3846 0C22.3849 0 21.4262 0.397114 20.7194 1.10398C20.0125 1.81085 19.6154 2.76957 19.6154 3.76923V7.53846H8.30769C6.30836 7.53846 4.39093 8.33269 2.97719 9.74643C1.56345 11.1602 0.769226 13.0776 0.769226 15.0769V90.4615C0.769226 92.4609 1.56345 94.3783 2.97719 95.792C4.39093 97.2058 6.30836 98 8.30769 98H83.6923C85.6916 98 87.6091 97.2058 89.0228 95.792C90.4365 94.3783 91.2308 92.4609 91.2308 90.4615V15.0769C91.2308 13.0776 90.4365 11.1602 89.0228 9.74643C87.6091 8.33269 85.6916 7.53846 83.6923 7.53846ZM38.4615 79.1538C38.4615 80.1535 38.0644 81.1122 37.3576 81.8191C36.6507 82.526 35.692 82.9231 34.6923 82.9231C33.6926 82.9231 32.7339 82.526 32.0271 81.8191C31.3202 81.1122 30.9231 80.1535 30.9231 79.1538V55.0967L28.8406 56.1427C27.9459 56.59 26.9101 56.6637 25.9611 56.3473C25.0122 56.031 24.2277 55.3507 23.7804 54.456C23.333 53.5613 23.2594 52.5255 23.5757 51.5765C23.8921 50.6276 24.5724 49.8431 25.4671 49.3958L33.0056 45.6265C33.5804 45.3389 34.2193 45.203 34.8615 45.2319C35.5037 45.2607 36.1278 45.4533 36.6745 45.7914C37.2213 46.1295 37.6725 46.6017 37.9853 47.1633C38.298 47.7249 38.462 48.3572 38.4615 49V79.1538ZM64.8462 75.3846C65.8458 75.3846 66.8045 75.7817 67.5114 76.4886C68.2183 77.1955 68.6154 78.1542 68.6154 79.1538C68.6154 80.1535 68.2183 81.1122 67.5114 81.8191C66.8045 82.526 65.8458 82.9231 64.8462 82.9231H49.7692C49.0692 82.9231 48.3831 82.7282 47.7876 82.3601C47.1922 81.9921 46.711 81.4656 46.3979 80.8395C46.0849 80.2134 45.9524 79.5125 46.0152 78.8154C46.0781 78.1182 46.3339 77.4523 46.7538 76.8923L60.3137 58.8141C60.6221 58.4035 60.8433 57.9342 60.9639 57.435C61.0844 56.9358 61.1017 56.4173 61.0146 55.9112C60.9275 55.4051 60.7379 54.9221 60.4575 54.4919C60.177 54.0617 59.8116 53.6934 59.3837 53.4095C58.9557 53.1256 58.4743 52.9321 57.9689 52.841C57.4635 52.7498 56.9448 52.7629 56.4447 52.8795C55.9445 52.996 55.4735 53.2135 55.0604 53.5186C54.6473 53.8237 54.301 54.21 54.0426 54.6538C53.8024 55.0962 53.476 55.4859 53.0828 55.8001C52.6895 56.1142 52.2373 56.3465 51.7529 56.483C51.2684 56.6196 50.7615 56.6577 50.2621 56.5952C49.7627 56.5327 49.2808 56.3708 48.8449 56.119C48.4091 55.8673 48.0281 55.5308 47.7244 55.1294C47.4207 54.728 47.2005 54.2699 47.0767 53.782C46.9529 53.2941 46.9281 52.7864 47.0038 52.2887C47.0794 51.7911 47.254 51.3137 47.5171 50.8846C48.7622 48.73 50.6833 47.0462 52.9826 46.0944C55.2818 45.1425 57.8309 44.9758 60.2346 45.6199C62.6383 46.264 64.7624 47.6831 66.2776 49.6572C67.7928 51.6312 68.6146 54.0499 68.6154 56.5385C68.6234 58.9967 67.822 61.3892 66.335 63.3466L57.3077 75.3846H64.8462ZM8.30769 30.1538V15.0769H19.6154V18.8462C19.6154 19.8458 20.0125 20.8045 20.7194 21.5114C21.4262 22.2183 22.3849 22.6154 23.3846 22.6154C24.3843 22.6154 25.343 22.2183 26.0499 21.5114C26.7567 20.8045 27.1538 19.8458 27.1538 18.8462V15.0769H64.8462V18.8462C64.8462 19.8458 65.2433 20.8045 65.9501 21.5114C66.657 22.2183 67.6157 22.6154 68.6154 22.6154C69.615 22.6154 70.5738 22.2183 71.2806 21.5114C71.9875 20.8045 72.3846 19.8458 72.3846 18.8462V15.0769H83.6923V30.1538H8.30769Z" fill="#1EA4D9"/>
</svg>
