<svg width="430" height="932" viewBox="0 0 430 932" fill="none" xmlns="http://www.w3.org/2000/svg">
<rect width="430" height="932" fill="#1EA4D9"/>
<path d="M158.172 617.547H155.061C155.005 617.144 154.889 616.787 154.713 616.474C154.538 616.157 154.313 615.887 154.039 615.665C153.764 615.442 153.447 615.272 153.087 615.153C152.732 615.035 152.346 614.976 151.929 614.976C151.176 614.976 150.521 615.163 149.962 615.537C149.403 615.906 148.97 616.446 148.662 617.156C148.355 617.862 148.201 618.719 148.201 619.727C148.201 620.764 148.355 621.635 148.662 622.341C148.975 623.046 149.41 623.579 149.969 623.939C150.528 624.299 151.174 624.479 151.908 624.479C152.32 624.479 152.701 624.424 153.051 624.315C153.407 624.206 153.721 624.048 153.996 623.839C154.271 623.626 154.498 623.368 154.678 623.065C154.863 622.762 154.99 622.417 155.061 622.028L158.172 622.043C158.092 622.71 157.891 623.354 157.569 623.974C157.251 624.59 156.823 625.142 156.283 625.629C155.748 626.112 155.109 626.496 154.365 626.78C153.627 627.059 152.791 627.199 151.858 627.199C150.561 627.199 149.401 626.905 148.378 626.318C147.36 625.731 146.555 624.881 145.963 623.768C145.376 622.656 145.083 621.309 145.083 619.727C145.083 618.141 145.381 616.792 145.978 615.679C146.574 614.566 147.384 613.719 148.407 613.136C149.429 612.549 150.58 612.256 151.858 612.256C152.701 612.256 153.482 612.374 154.202 612.611C154.926 612.848 155.568 613.193 156.127 613.648C156.685 614.098 157.14 614.649 157.49 615.303C157.846 615.956 158.073 616.704 158.172 617.547ZM162.611 627H159.316L164.337 612.455H168.3L173.314 627H170.019L166.375 615.778H166.262L162.611 627ZM162.405 621.283H170.189V623.683H162.405V621.283ZM175.065 627V612.455H180.804C181.902 612.455 182.84 612.651 183.616 613.044C184.397 613.432 184.992 613.984 185.399 614.699C185.811 615.409 186.017 616.245 186.017 617.206C186.017 618.172 185.808 619.003 185.392 619.699C184.975 620.39 184.371 620.92 183.581 621.29C182.795 621.659 181.843 621.844 180.725 621.844H176.883V619.372H180.228C180.815 619.372 181.303 619.292 181.691 619.131C182.08 618.97 182.368 618.728 182.558 618.406C182.752 618.084 182.849 617.684 182.849 617.206C182.849 616.723 182.752 616.316 182.558 615.984C182.368 615.653 182.077 615.402 181.684 615.232C181.296 615.056 180.806 614.969 180.214 614.969H178.14V627H175.065ZM182.92 620.381L186.535 627H183.14L179.603 620.381H182.92ZM188.19 627V612.455H193.929C195.027 612.455 195.965 612.651 196.741 613.044C197.522 613.432 198.117 613.984 198.524 614.699C198.936 615.409 199.142 616.245 199.142 617.206C199.142 618.172 198.933 619.003 198.517 619.699C198.1 620.39 197.496 620.92 196.706 621.29C195.92 621.659 194.968 621.844 193.85 621.844H190.008V619.372H193.353C193.94 619.372 194.428 619.292 194.816 619.131C195.205 618.97 195.493 618.728 195.683 618.406C195.877 618.084 195.974 617.684 195.974 617.206C195.974 616.723 195.877 616.316 195.683 615.984C195.493 615.653 195.202 615.402 194.809 615.232C194.421 615.056 193.931 614.969 193.339 614.969H191.265V627H188.19ZM196.045 620.381L199.66 627H196.265L192.728 620.381H196.045ZM201.315 627V612.455H211.116V614.99H204.39V618.456H210.612V620.991H204.39V624.464H211.145V627H201.315ZM223.206 617.156C223.107 616.811 222.967 616.505 222.787 616.24C222.607 615.97 222.387 615.743 222.126 615.558C221.871 615.369 221.577 615.224 221.246 615.125C220.919 615.026 220.557 614.976 220.159 614.976C219.416 614.976 218.762 615.161 218.199 615.53C217.64 615.899 217.205 616.437 216.892 617.142C216.58 617.843 216.423 618.7 216.423 619.713C216.423 620.726 216.577 621.588 216.885 622.298C217.193 623.009 217.628 623.551 218.192 623.925C218.755 624.294 219.42 624.479 220.188 624.479C220.884 624.479 221.478 624.356 221.97 624.109C222.467 623.858 222.846 623.506 223.107 623.051C223.372 622.597 223.504 622.059 223.504 621.439L224.129 621.531H220.379V619.216H226.466V621.048C226.466 622.327 226.196 623.425 225.656 624.344C225.116 625.258 224.373 625.963 223.426 626.46C222.479 626.953 221.395 627.199 220.173 627.199C218.81 627.199 217.612 626.898 216.58 626.297C215.547 625.691 214.742 624.831 214.165 623.719C213.592 622.601 213.305 621.276 213.305 619.741C213.305 618.562 213.476 617.511 213.817 616.588C214.162 615.66 214.645 614.874 215.266 614.23C215.886 613.586 216.608 613.096 217.432 612.76C218.256 612.424 219.148 612.256 220.109 612.256C220.933 612.256 221.7 612.376 222.411 612.618C223.121 612.855 223.75 613.191 224.3 613.626C224.854 614.062 225.306 614.58 225.656 615.182C226.007 615.778 226.232 616.437 226.331 617.156H223.206ZM230.834 627H227.538L232.56 612.455H236.523L241.537 627H238.241L234.598 615.778H234.484L230.834 627ZM230.628 621.283H238.412V623.683H230.628V621.283ZM255.454 612.455V627H252.798L246.469 617.845H246.363V627H243.288V612.455H245.987L252.265 621.602H252.393V612.455H255.454ZM263.151 627H257.995V612.455H263.194C264.657 612.455 265.916 612.746 266.972 613.328C268.028 613.906 268.84 614.737 269.408 615.821C269.981 616.905 270.267 618.203 270.267 619.713C270.267 621.228 269.981 622.53 269.408 623.619C268.84 624.708 268.023 625.544 266.958 626.126C265.897 626.709 264.628 627 263.151 627ZM261.07 624.365H263.023C263.932 624.365 264.697 624.204 265.317 623.882C265.942 623.555 266.411 623.051 266.723 622.369C267.041 621.683 267.199 620.797 267.199 619.713C267.199 618.638 267.041 617.76 266.723 617.078C266.411 616.396 265.944 615.894 265.324 615.572C264.704 615.25 263.939 615.089 263.03 615.089H261.07V624.365ZM285.912 619.727C285.912 621.313 285.611 622.663 285.01 623.776C284.413 624.888 283.599 625.738 282.567 626.325C281.539 626.908 280.384 627.199 279.101 627.199C277.808 627.199 276.648 626.905 275.621 626.318C274.593 625.731 273.781 624.881 273.185 623.768C272.588 622.656 272.29 621.309 272.29 619.727C272.29 618.141 272.588 616.792 273.185 615.679C273.781 614.566 274.593 613.719 275.621 613.136C276.648 612.549 277.808 612.256 279.101 612.256C280.384 612.256 281.539 612.549 282.567 613.136C283.599 613.719 284.413 614.566 285.01 615.679C285.611 616.792 285.912 618.141 285.912 619.727ZM282.794 619.727C282.794 618.7 282.64 617.833 282.332 617.128C282.029 616.422 281.601 615.887 281.047 615.523C280.493 615.158 279.844 614.976 279.101 614.976C278.357 614.976 277.709 615.158 277.155 615.523C276.601 615.887 276.17 616.422 275.862 617.128C275.559 617.833 275.408 618.7 275.408 619.727C275.408 620.755 275.559 621.621 275.862 622.327C276.17 623.032 276.601 623.567 277.155 623.932C277.709 624.296 278.357 624.479 279.101 624.479C279.844 624.479 280.493 624.296 281.047 623.932C281.601 623.567 282.029 623.032 282.332 622.327C282.64 621.621 282.794 620.755 282.794 619.727Z" fill="#14546D"/>
<path d="M170.938 464.842C167.913 465.747 164.642 466.076 161.616 465.206C153.261 462.772 151.134 451.902 153.786 444.659C154.82 441.811 156.769 439.233 159.447 437.779C162.142 436.291 165.413 436.055 168.421 436.689C172.608 437.576 176.108 439.993 179.641 442.326C180.997 443.222 182.802 442.242 182.802 440.627V427.611C182.802 414.51 193.548 403.793 206.683 403.793H218.954C220.564 403.793 221.555 405.585 220.674 406.929C218.14 410.8 215.31 414.544 214.352 419.134C213.717 422.151 213.954 425.397 215.445 428.101C216.903 430.755 219.488 432.691 222.343 433.747C229.606 436.376 240.504 434.271 242.945 425.938C243.817 422.903 243.487 419.641 242.58 416.64C241.699 413.784 239.377 410.31 237.521 406.777C236.809 405.416 237.784 403.785 239.326 403.785H278.588V381.818C278.588 368.717 267.842 358 254.707 358H112.881C99.7454 358.017 89 368.734 89 381.835V476.32C89 489.421 99.7454 500.138 112.881 500.138H128.414C129.533 500.138 130.456 501.034 130.456 502.158C130.49 508.725 128.694 517.042 121.219 523.601C119.804 524.835 120.753 527.151 122.635 527.134C130.863 527.058 146.363 523.686 155.54 501.423C155.854 500.654 156.6 500.147 157.422 500.147H182.802V462.163C182.802 460.616 181.141 459.636 179.785 460.38C176.608 462.112 173.523 464.073 170.938 464.859V464.842Z" fill="#F5F5F5"/>
<path d="M346.831 403.803H278.579V439.2C278.579 440.755 280.266 441.736 281.621 440.967C284.316 439.445 286.901 437.915 289.113 437.239C292.138 436.335 295.409 436.005 298.434 436.876C306.807 439.293 308.917 450.179 306.265 457.423C305.231 460.271 303.282 462.832 300.621 464.303C297.909 465.773 294.655 466.027 291.63 465.393C287.96 464.624 284.833 462.68 281.74 460.635C280.384 459.739 278.579 460.711 278.579 462.333V476.322C278.579 489.422 267.834 500.139 254.698 500.139H239.936C238.318 500.139 237.335 498.348 238.216 497.004C240.716 493.192 243.47 489.49 244.411 484.985C245.046 481.968 244.809 478.705 243.317 476.017C241.86 473.363 239.275 471.402 236.419 470.371C229.174 467.717 218.259 469.847 215.818 478.181C214.945 481.198 215.276 484.461 216.183 487.478C217.047 490.284 219.293 493.682 221.14 497.147C221.86 498.508 220.886 500.148 219.344 500.148H182.811V522.115C182.811 535.215 193.556 545.933 206.691 545.933H304.773C305.629 545.933 306.383 546.474 306.68 547.268C315.773 571.424 332.01 574.94 340.467 574.991C342.357 575.008 343.17 572.658 341.755 571.407C333.45 564.096 332.188 554.613 332.645 547.809C332.713 546.744 333.611 545.924 334.688 545.924H346.84C359.975 545.924 370.72 535.207 370.72 522.106V427.621C370.72 414.52 359.975 403.803 346.84 403.803H346.831Z" fill="#F5F5F5"/>
</svg>
