<svg width="116" height="90" viewBox="0 0 116 90" fill="none" xmlns="http://www.w3.org/2000/svg">
<path d="M33.7385 43.993C32.4928 44.3653 31.1459 44.5011 29.9002 44.1426C26.4597 43.1403 25.5839 38.6648 26.6761 35.6823C27.1018 34.5095 27.9043 33.448 29.007 32.8494C30.1166 32.2369 31.4635 32.1395 32.7022 32.4005C34.4259 32.7659 35.867 33.7612 37.3221 34.7218C37.8804 35.0907 38.6236 34.687 38.6236 34.0222V28.6628C38.6236 23.2685 43.0481 18.8556 48.4566 18.8556H53.5092C54.1722 18.8556 54.5804 19.5934 54.2175 20.1468C53.1742 21.7407 52.0088 23.2824 51.6145 25.1721C51.3528 26.4146 51.4505 27.751 52.0646 28.8646C52.6648 29.9574 53.729 30.7544 54.9049 31.1894C57.8953 32.2717 62.3826 31.4051 63.3875 27.9737C63.7469 26.7243 63.6109 25.381 63.2375 24.1455C62.8746 22.9692 61.9185 21.5388 61.1544 20.0841C60.8612 19.5238 61.2625 18.8521 61.8976 18.8521H78.0637V9.80715C78.0637 4.41287 73.6392 0 68.2308 0H9.83299C4.4245 0.00696036 0 4.41983 0 9.81411V48.719C0 54.1133 4.4245 58.5262 9.83299 58.5262H16.229C16.6896 58.5262 17.0699 58.8951 17.0699 59.3579C17.0839 62.062 16.3441 65.4865 13.2665 68.1872C12.6838 68.6953 13.0746 69.6488 13.8492 69.6419C17.2374 69.6106 23.6194 68.222 27.3984 59.0552C27.5275 58.7385 27.8345 58.5297 28.173 58.5297H38.6236V42.8897C38.6236 42.2529 37.9397 41.8492 37.3814 42.1554C36.0729 42.8689 34.8028 43.6763 33.7385 43.9999V43.993Z" fill="#1EA4D9"/>
<path d="M106.163 18.8595H78.0602V33.4345C78.0602 34.0748 78.7546 34.4785 79.3129 34.1618C80.4225 33.5354 81.4868 32.9055 82.3975 32.6271C83.6432 32.2547 84.9901 32.119 86.2358 32.4774C89.6832 33.4728 90.5521 37.9552 89.4599 40.9378C89.0342 42.1106 88.2317 43.1651 87.136 43.7706C86.0194 44.3762 84.6795 44.4806 83.4338 44.2196C81.9229 43.9029 80.6354 43.1024 79.3618 42.2602C78.8035 41.8913 78.0602 42.2915 78.0602 42.9597V48.7194C78.0602 54.1137 73.6357 58.5266 68.2272 58.5266H62.1488C61.4823 58.5266 61.0776 57.7888 61.4404 57.2354C62.4698 55.6659 63.6038 54.1416 63.9912 52.2866C64.2529 51.0442 64.1552 49.7008 63.541 48.5942C62.9409 47.5014 61.8766 46.694 60.7007 46.2694C57.7173 45.1766 53.223 46.0536 52.2181 49.4851C51.8587 50.7275 51.9948 52.0709 52.3681 53.3133C52.7241 54.4687 53.6487 55.8677 54.4094 57.2946C54.706 57.8549 54.3047 58.5301 53.6697 58.5301H38.6271V67.5751C38.6271 72.9693 43.0516 77.3822 48.4601 77.3822H88.8458C89.1982 77.3822 89.5088 77.6049 89.6309 77.9321C93.375 87.8784 100.061 89.3262 103.543 89.3471C104.321 89.354 104.656 88.3865 104.073 87.8715C100.654 84.8611 100.134 80.9563 100.322 78.1548C100.35 77.7163 100.72 77.3787 101.163 77.3787H106.167C111.575 77.3787 116 72.9659 116 67.5716V28.6666C116 23.2724 111.575 18.8595 106.167 18.8595H106.163Z" fill="#F2CB05"/>
</svg>
