<svg width="455" height="351" viewBox="0 0 455 351" fill="none" xmlns="http://www.w3.org/2000/svg">
<path d="M132.336 172.559C127.45 174.019 122.167 174.552 117.281 173.146C103.786 169.214 100.351 151.659 104.635 139.961C106.304 135.36 109.452 131.197 113.777 128.849C118.13 126.446 123.413 126.064 128.272 127.088C135.033 128.521 140.685 132.425 146.393 136.193C148.583 137.64 151.498 136.057 151.498 133.449V112.427C151.498 91.2686 168.853 73.9595 190.067 73.9595H209.885C212.486 73.9595 214.087 76.8535 212.664 79.0239C208.571 85.276 204 91.3232 202.453 98.7355C201.427 103.609 201.81 108.851 204.219 113.219C206.573 117.505 210.747 120.631 215.36 122.338C227.089 126.583 244.69 123.184 248.632 109.724C250.042 104.824 249.508 99.5546 248.044 94.7086C246.62 90.0947 242.87 84.4842 239.873 78.7782C238.723 76.5805 240.297 73.9459 242.788 73.9459H306.198V38.4677C306.198 17.3091 288.844 0 267.629 0H38.5691C17.3547 0.0273014 0 17.3364 0 38.495V191.096C0 212.255 17.3547 229.564 38.5691 229.564H63.6567C65.4634 229.564 66.9552 231.011 66.9552 232.826C67.01 243.433 64.1084 256.865 52.0367 267.458C49.7511 269.451 51.284 273.192 54.3224 273.164C67.6122 273.041 92.6451 267.595 107.468 231.639C107.974 230.397 109.179 229.578 110.506 229.578H151.498V168.231C151.498 165.733 148.815 164.15 146.625 165.351C141.493 168.149 136.511 171.316 132.336 172.586V172.559Z" fill="#1EA4D9"/>
<path d="M416.417 73.9753H306.185V131.144C306.185 133.656 308.908 135.24 311.098 133.997C315.451 131.54 319.625 129.07 323.197 127.978C328.083 126.517 333.366 125.985 338.253 127.391C351.775 131.295 355.183 148.877 350.899 160.575C349.229 165.176 346.081 169.312 341.784 171.687C337.404 174.062 332.148 174.472 327.262 173.448C321.336 172.206 316.285 169.066 311.29 165.763C309.1 164.316 306.185 165.886 306.185 168.506V191.098C306.185 212.257 288.83 229.566 267.616 229.566H243.773C241.159 229.566 239.572 226.672 240.995 224.502C245.033 218.345 249.481 212.366 251 205.09C252.026 200.217 251.643 194.948 249.234 190.607C246.88 186.321 242.706 183.154 238.093 181.488C226.391 177.202 208.763 180.642 204.821 194.102C203.411 198.975 203.945 204.244 205.41 209.117C206.806 213.649 210.433 219.137 213.416 224.734C214.58 226.931 213.006 229.58 210.515 229.58H151.512V265.058C151.512 286.216 168.866 303.526 190.081 303.526H348.49C349.873 303.526 351.091 304.399 351.57 305.682C366.255 344.696 392.479 350.375 406.138 350.457C409.191 350.484 410.505 346.689 408.219 344.669C394.806 332.861 392.767 317.545 393.506 306.556C393.615 304.836 395.066 303.512 396.804 303.512H416.431C437.645 303.512 455 286.203 455 265.044V112.443C455 91.2844 437.645 73.9753 416.431 73.9753H416.417Z" fill="#F2CB05"/>
</svg>
