<svg width="99" height="99" viewBox="0 0 99 99" fill="none" xmlns="http://www.w3.org/2000/svg">
<path d="M87.2143 47.1429H80.1429V28.2857C80.1429 25.7851 79.1495 23.3869 77.3813 21.6187C75.6131 19.8505 73.2149 18.8571 70.7143 18.8571H51.8571V11.7857C51.8571 8.65995 50.6154 5.66221 48.4052 3.45196C46.1949 1.24171 43.1972 0 40.0714 0C36.9457 0 33.9479 1.24171 31.7377 3.45196C29.5274 5.66221 28.2857 8.65995 28.2857 11.7857V18.8571H9.42857C6.92796 18.8571 4.52976 19.8505 2.76156 21.6187C0.993364 23.3869 0 25.7851 0 28.2857V46.2H7.07143C14.1429 46.2 19.8 51.8571 19.8 58.9286C19.8 66 14.1429 71.6572 7.07143 71.6572H0V89.5714C0 92.072 0.993364 94.4702 2.76156 96.2384C4.52976 98.0066 6.92796 99 9.42857 99H27.3429V91.9286C27.3429 84.8571 33 79.2 40.0714 79.2C47.1429 79.2 52.8 84.8571 52.8 91.9286V99H70.7143C73.2149 99 75.6131 98.0066 77.3813 96.2384C79.1495 94.4702 80.1429 92.072 80.1429 89.5714V70.7143H87.2143C90.3401 70.7143 93.3378 69.4726 95.548 67.2623C97.7583 65.0521 99 62.0543 99 58.9286C99 55.8028 97.7583 52.8051 95.548 50.5948C93.3378 48.3846 90.3401 47.1429 87.2143 47.1429Z" fill="#1EA4D9"/>
<path d="M87.2143 47.1429H80.1429V28.2857C80.1429 25.7851 79.1495 23.3869 77.3813 21.6187C75.6131 19.8505 73.2149 18.8571 70.7143 18.8571H51.8571V11.7857C51.8571 8.65995 50.6154 5.66221 48.4052 3.45196C46.1949 1.24171 43.1972 0 40.0714 0C36.9457 0 33.9479 1.24171 31.7377 3.45196C29.5274 5.66221 28.2857 8.65995 28.2857 11.7857V18.8571H9.42857C6.92796 18.8571 4.52976 19.8505 2.76156 21.6187C0.993364 23.3869 0 25.7851 0 28.2857V46.2H7.07143C14.1429 46.2 19.8 51.8571 19.8 58.9286C19.8 66 14.1429 71.6572 7.07143 71.6572H0V89.5714C0 92.072 0.993364 94.4702 2.76156 96.2384C4.52976 98.0066 6.92796 99 9.42857 99H27.3429V91.9286C27.3429 84.8571 33 79.2 40.0714 79.2C47.1429 79.2 52.8 84.8571 52.8 91.9286V99H70.7143C73.2149 99 75.6131 98.0066 77.3813 96.2384C79.1495 94.4702 80.1429 92.072 80.1429 89.5714V70.7143H87.2143C90.3401 70.7143 93.3378 69.4726 95.548 67.2623C97.7583 65.0521 99 62.0543 99 58.9286C99 55.8028 97.7583 52.8051 95.548 50.5948C93.3378 48.3846 90.3401 47.1429 87.2143 47.1429Z" fill="#1EA4D9"/>
</svg>
