<svg width="89" height="80" viewBox="0 0 89 80" fill="none" xmlns="http://www.w3.org/2000/svg">
<path d="M17 41.25V19.25H8.75C6.56196 19.25 4.46354 20.1192 2.91637 21.6664C1.36919 23.2135 0.5 25.312 0.5 27.5V77C0.504093 77.5107 0.650334 78.0102 0.922335 78.4425C1.19434 78.8748 1.58135 79.2228 2.04 79.4475C2.48187 79.6484 2.96905 79.7289 3.45206 79.6806C3.93506 79.6323 4.39667 79.457 4.79 79.1725L18.9525 68.75H55.9125C56.9548 68.7808 57.9923 68.5973 58.9607 68.2109C59.9292 67.8244 60.808 67.2432 61.5428 66.5033C62.2775 65.7635 62.8525 64.8806 63.2322 63.9094C63.6119 62.9383 63.7881 61.8995 63.75 60.8575V57.75H33.5C29.1239 57.75 24.9271 56.0116 21.8327 52.9173C18.7384 49.8229 17 45.6261 17 41.25Z" fill="#1EA4D9"/>
<path d="M80.25 0H33.5C31.312 0 29.2135 0.869194 27.6664 2.41637C26.1192 3.96354 25.25 6.06196 25.25 8.25V41.25C25.25 43.438 26.1192 45.5365 27.6664 47.0836C29.2135 48.6308 31.312 49.5 33.5 49.5H70.7625L83.9075 59.7025C84.2983 59.9914 84.7586 60.1716 85.2417 60.2248C85.7248 60.2779 86.2133 60.2021 86.6575 60.005C87.1255 59.7821 87.5209 59.4315 87.7983 58.9936C88.0756 58.5557 88.2235 58.0483 88.225 57.53V8.25C88.2262 6.10879 87.3948 4.05099 85.9067 2.51148C84.4185 0.971976 82.39 0.0713734 80.25 0Z" fill="#1EA4D9"/>
</svg>
