<?xml version="1.0" encoding="UTF-8"?>
<svg id="Camada_2" data-name="Camada 2" xmlns="http://www.w3.org/2000/svg" viewBox="0 0 571.01 127.9">
  <defs>
    <style>
      .cls-1 {
        fill: #fff;
        stroke-width: 0px;
      }
    </style>
  </defs>
  <g id="Camada_7" data-name="Camada 7">
    <g>
      <path class="cls-1" d="m43.44,0h-13.72c-5.1,0-9.11,1.42-11.91,4.23-2.8,2.8-4.23,6.86-4.23,12.05v31.78c0,3.31-.59,5.68-1.75,7.02-1.12,1.29-3.19,2.02-6.15,2.18l-3.82.28-1.85.14v12.39l1.85.14,3.78.28c2.99.24,5.08,1,6.21,2.27,1.13,1.28,1.73,3.72,1.73,7.07v31.78c0,5.19,1.42,9.25,4.23,12.05,2.8,2.8,6.81,4.23,11.91,4.23h15.72v-12.96h-12.36c-1.49,0-2.57-.32-3.21-.95-.63-.63-.95-1.76-.95-3.35v-32.06c0-3.09-.63-5.96-1.88-8.51-1.26-2.58-2.99-4.65-5.13-6.15-.02-.01-.04-.03-.06-.04.02-.01.04-.03.06-.04,2.14-1.5,3.86-3.57,5.13-6.15,1.25-2.55,1.88-5.41,1.88-8.51v-31.92c0-1.59.32-2.71.95-3.35.63-.63,1.71-.95,3.21-.95h12.36V0h-2Zm-26.54,63.88s.04-.01.06-.02c-.02,0-.04.01-.06.02.02,0,.04.01.07.02-.02,0-.05-.01-.07-.02,0,0,0,0,0,0,0,0,0,0,0,0Zm3.05,1.17c-.09-.05-.18-.09-.27-.14.09.05.18.09.27.14Zm-.87-.44c-.1-.05-.21-.09-.31-.14.1.04.21.09.31.14Zm-.94-.37c-.1-.03-.2-.07-.29-.1.1.03.2.07.29.1Zm-.29-.6c.1-.03.2-.07.3-.1-.1.03-.2.07-.3.1Zm.92-.34c.1-.04.21-.09.31-.14-.1.05-.21.09-.31.14Zm.91-.43c.09-.05.18-.09.27-.14-.09.05-.18.1-.27.14Z"/>
      <path class="cls-1" d="m89.1,10.06h-33.8v105.4h34.64c31.71,0,49.9-19.16,49.9-52.56S121.34,10.06,89.1,10.06Zm-15.76,17.76h15.76c10.78,0,18.9,2.87,24.14,8.52,5.31,5.74,8,14.67,8,26.56s-2.69,20.6-8,26.31c-5.24,5.64-13.37,8.49-24.14,8.49h-15.76V27.82Z"/>
      <path class="cls-1" d="m185.27,57.55l-3.78-.28c-3.01-.16-5.08-.89-6.19-2.18-1.16-1.35-1.75-3.71-1.75-7.02v-31.78c0-5.09-1.39-9.11-4.13-11.96-2.76-2.87-6.76-4.32-11.87-4.32h-15.72v12.96h12.36c1.47,0,2.52.31,3.1.92.76.79.92,2.28.92,3.38v31.92c0,3.09.63,5.96,1.88,8.51,1.27,2.59,3.02,4.66,5.22,6.16.01,0,.03.02.04.03-.01,0-.03.02-.04.03-2.19,1.5-3.95,3.57-5.22,6.16-1.25,2.55-1.88,5.42-1.88,8.51v32.06c0,1.1-.16,2.58-.92,3.38-.58.61-1.63.92-3.1.92h-12.36v12.96h15.72c5.12,0,9.11-1.45,11.87-4.32,2.74-2.85,4.13-6.87,4.13-11.96v-31.78c0-3.41.59-5.82,1.75-7.16,1.11-1.29,3.18-2.02,6.15-2.18l3.82-.28,1.85-.14v-12.39l-1.85-.14Zm-15.03,6.32s.04.01.06.02c0,0,0,0,0,0,0,0,0,0,0,0-.02,0-.05.01-.07.02.02,0,.04-.01.07-.02-.02,0-.04-.01-.06-.02Zm-.87.27c-.1.03-.2.07-.29.1.1-.03.19-.07.29-.1Zm-.92.34c-.1.04-.21.09-.31.14.1-.05.21-.09.31-.14Zm-.92.43c-.09.05-.18.09-.27.14.09-.05.18-.09.27-.14Zm-.27-2.19c.09.05.18.1.27.14-.09-.05-.18-.09-.27-.14Zm.87.44c.1.05.21.09.31.14-.1-.04-.21-.09-.31-.14Zm.94.37c.1.03.19.07.29.1-.1-.03-.2-.07-.29-.1Z"/>
      <g>
        <path class="cls-1" d="m277.01,74.75l-2.72-.18-.44,2.69c-2.44,15.05-11.24,22.68-26.16,22.68-17.92,0-29.06-14.19-29.06-37.04s11.14-37.32,29.06-37.32c14.11,0,22.64,6.91,25.34,20.54l.51,2.58,2.63-.17,12.74-.84,3.42-.23-.68-3.36c-4.78-23.74-19.98-36.29-43.96-36.29-14.06,0-26.02,5.18-34.57,14.99-8.57,9.83-13.09,23.69-13.09,40.09s4.53,30.2,13.1,39.95c8.53,9.71,20.48,14.85,34.56,14.85,23.98,0,40.73-14.44,44.82-38.62l.55-3.27-3.31-.22-12.74-.84Z"/>
        <path class="cls-1" d="m347.93,7.82c-29.83,0-48.36,21.11-48.36,55.08s18.53,54.8,48.36,54.8c14.82,0,27.15-5.13,35.66-14.85,8.4-9.58,12.84-23.4,12.84-39.95,0-33.97-18.58-55.08-48.5-55.08Zm0,92.12c-18.91,0-29.76-13.5-29.76-37.04s11.13-37.32,29.76-37.32,29.9,13.6,29.9,37.32-10.9,37.04-29.9,37.04Z"/>
        <path class="cls-1" d="m440.47,10.06h-33.8v105.4h34.64c31.71,0,49.9-19.16,49.9-52.56s-18.49-52.84-50.74-52.84Zm-15.76,17.76h15.76c10.78,0,18.9,2.87,24.14,8.52,5.31,5.74,8,14.67,8,26.56s-2.69,20.6-8,26.31c-5.24,5.64-13.37,8.49-24.14,8.49h-15.76V27.82Z"/>
        <polygon class="cls-1" points="568.01 97.7 519.49 97.7 519.49 71.36 565.21 71.36 568.21 71.36 568.21 68.36 568.21 56.88 568.21 53.88 565.21 53.88 519.49 53.88 519.49 27.82 566.89 27.82 569.89 27.82 569.89 24.82 569.89 13.06 569.89 10.06 566.89 10.06 504.45 10.06 501.45 10.06 501.45 13.06 501.45 112.46 501.45 115.46 504.45 115.46 568.01 115.46 571.01 115.46 571.01 112.46 571.01 100.7 571.01 97.7 568.01 97.7"/>
      </g>
    </g>
  </g>
</svg>